<?xml version="1.0" standalone="no"?>
<!DOCTYPE svg PUBLIC "-//W3C//DTD SVG 20010904//EN"
 "http://www.w3.org/TR/2001/REC-SVG-20010904/DTD/svg10.dtd">
<svg version="1.0" xmlns="http://www.w3.org/2000/svg"
 width="1024.000000pt" height="1024.000000pt" viewBox="0 0 1024.000000 1024.000000"
 preserveAspectRatio="xMidYMid meet">
<metadata>
Created by potrace 1.11, written by Peter Selinger 2001-2013
</metadata>
<g transform="translate(0.000000,1024.000000) scale(0.100000,-0.100000)"
fill="#000000" stroke="none">
<path d="M3065 8645 c-125 -27 -239 -90 -322 -178 -132 -140 -168 -275 -127
-487 21 -112 54 -201 135 -362 97 -197 163 -301 873 -1396 350 -540 639 -989
642 -996 3 -9 -331 -506 -788 -1173 -436 -637 -824 -1210 -862 -1273 -79 -131
-141 -260 -180 -374 -78 -227 -75 -471 9 -637 33 -65 113 -151 182 -195 157
-102 414 -122 609 -49 160 60 284 177 438 411 54 82 403 615 776 1184 372 569
681 1035 686 1037 5 1 281 -426 613 -950 912 -1435 972 -1524 1112 -1619 114
-78 254 -114 414 -105 239 12 438 134 536 329 87 172 80 393 -18 622 -70 164
-90 196 -977 1561 -429 660 -780 1209 -780 1220 0 11 330 515 734 1120 405
605 764 1152 798 1216 75 140 134 282 163 392 30 113 30 259 0 342 -97 271
-399 424 -710 361 -223 -45 -326 -145 -613 -591 -222 -346 -1240 -1885 -1247
-1885 -3 0 -251 397 -551 882 -708 1146 -850 1359 -981 1471 -131 113 -371
165 -564 122z"/>
</g>
</svg>
